<svg width="35" height="36" viewBox="0 0 35 36" fill="none" xmlns="http://www.w3.org/2000/svg">
<mask id="mask0_7_43" style="mask-type:alpha" maskUnits="userSpaceOnUse" x="0" y="0" width="35" height="36">
<rect x="35" y="0.5" width="35" height="35" transform="rotate(90 35 0.5)" fill="#D9D9D9"/>
</mask>
<g mask="url(#mask0_7_43)">
<path d="M17.5 3.41666C19.6389 3.41666 21.6198 3.82985 23.4428 4.65624C25.2657 5.48263 26.8455 6.61284 28.1823 8.04686C29.5191 9.48089 30.5339 11.1337 31.2266 13.0052C31.9193 14.8767 32.1928 16.8819 32.0469 19.0208C31.9983 19.434 31.8221 19.7621 31.5183 20.0052C31.2145 20.2483 30.8559 20.3333 30.4427 20.2604C30.0296 20.1875 29.7014 19.987 29.4584 19.6588C29.2153 19.3307 29.1059 18.9601 29.1303 18.5469C29.2032 16.8698 28.9662 15.296 28.4193 13.8255C27.8724 12.355 27.0643 11.0608 25.9948 9.9427C24.9254 8.82464 23.6676 7.94357 22.2214 7.29947C20.7752 6.65537 19.2014 6.33332 17.5 6.33332C14.2431 6.33332 11.4844 7.46353 9.224 9.72395C6.96359 11.9844 5.83338 14.743 5.83338 18C5.83338 19.6771 6.15543 21.2387 6.79952 22.6849C7.44362 24.1311 8.3247 25.3889 9.44275 26.4583C10.6094 27.5764 11.9341 28.4028 13.4167 28.9375C14.8993 29.4722 16.4427 29.7031 18.0469 29.6302C18.4601 29.6059 18.8308 29.7153 19.1589 29.9583C19.487 30.2014 19.6875 30.5295 19.7605 30.9427C19.8334 31.3559 19.7483 31.7144 19.5052 32.0182C19.2622 32.322 18.9341 32.4983 18.5209 32.5469C16.4063 32.6927 14.4132 32.4193 12.5417 31.7266C10.6702 31.0338 9.01741 30.0312 7.58338 28.7187C6.07643 27.3333 4.92192 25.717 4.11984 23.8698C3.31775 22.0226 2.91671 20.066 2.91671 18C2.91671 15.9826 3.29952 14.0868 4.06515 12.3125C4.83077 10.5382 5.86984 8.99478 7.18234 7.68228C8.49484 6.36978 10.0382 5.33072 11.8125 4.56509C13.5868 3.79947 15.4827 3.41666 17.5 3.41666ZM21.875 26.75C21.875 25.5347 22.3004 24.5017 23.1511 23.651C24.0018 22.8003 25.0348 22.375 26.25 22.375C27.4653 22.375 28.4983 22.8003 29.349 23.651C30.1997 24.5017 30.625 25.5347 30.625 26.75C30.625 27.9653 30.1997 28.9983 29.349 29.8489C28.4983 30.6996 27.4653 31.125 26.25 31.125C25.0348 31.125 24.0018 30.6996 23.1511 29.8489C22.3004 28.9983 21.875 27.9653 21.875 26.75Z" fill="#0E0E0E"/>
</g>
</svg>
