<svg width="104" height="20" viewBox="0 0 104 20" fill="none" xmlns="http://www.w3.org/2000/svg">
<path d="M9.244 19.208C7.40667 19.208 5.838 18.8873 4.538 18.246C3.25533 17.6047 2.26733 16.712 1.574 15.568C0.898 14.4067 0.56 13.0633 0.56 11.538C0.56 10.03 0.82 8.61733 1.34 7.3C1.86 5.96533 2.60533 4.79533 3.576 3.79C4.564 2.78467 5.734 2.00467 7.086 1.45C8.45533 0.878 9.998 0.592 11.714 0.592C13.222 0.592 14.5567 0.834667 15.718 1.32C16.8793 1.80533 17.772 2.50733 18.396 3.426L16.524 5.038C15.9867 4.34467 15.302 3.816 14.47 3.452C13.638 3.088 12.6587 2.906 11.532 2.906C10.232 2.906 9.062 3.13133 8.022 3.582C6.99933 4.01533 6.124 4.63067 5.396 5.428C4.668 6.208 4.11333 7.10933 3.732 8.132C3.35067 9.15467 3.16 10.238 3.16 11.382C3.16 12.474 3.394 13.436 3.862 14.268C4.34733 15.0827 5.04933 15.724 5.968 16.192C6.904 16.66 8.05667 16.894 9.426 16.894C10.5353 16.894 11.5493 16.712 12.468 16.348C13.404 15.984 14.2273 15.4467 14.938 14.736L16.446 16.452C15.614 17.3707 14.574 18.064 13.326 18.532C12.078 18.9827 10.7173 19.208 9.244 19.208ZM19.1411 19L22.7811 0.799999H25.3811L22.1831 16.738H32.0631L31.6211 19H19.1411ZM43.0105 19.208C41.2078 19.208 39.6652 18.8873 38.3825 18.246C37.0998 17.6047 36.1205 16.712 35.4445 15.568C34.7858 14.4067 34.4565 13.0633 34.4565 11.538C34.4565 10.03 34.7165 8.61733 35.2365 7.3C35.7565 5.96533 36.5018 4.79533 37.4725 3.79C38.4432 2.78467 39.6045 2.00467 40.9565 1.45C42.3085 0.878 43.8252 0.592 45.5065 0.592C47.3265 0.592 48.8778 0.912667 50.1605 1.554C51.4432 2.19533 52.4138 3.09667 53.0725 4.258C53.7485 5.402 54.0865 6.73667 54.0865 8.262C54.0865 9.77 53.8265 11.1913 53.3065 12.526C52.7865 13.8433 52.0412 15.0047 51.0705 16.01C50.0998 17.0153 48.9298 17.804 47.5605 18.376C46.2085 18.9307 44.6918 19.208 43.0105 19.208ZM43.2445 16.894C44.4925 16.894 45.6278 16.6773 46.6505 16.244C47.6732 15.7933 48.5398 15.178 49.2505 14.398C49.9612 13.6007 50.5072 12.6907 50.8885 11.668C51.2698 10.6453 51.4605 9.562 51.4605 8.418C51.4605 7.326 51.2265 6.37267 50.7585 5.558C50.2905 4.726 49.5972 4.076 48.6785 3.608C47.7598 3.14 46.6332 2.906 45.2985 2.906C44.0332 2.906 42.8892 3.13133 41.8665 3.582C40.8612 4.01533 39.9945 4.63067 39.2665 5.428C38.5558 6.208 38.0098 7.10933 37.6285 8.132C37.2472 9.15467 37.0565 10.238 37.0565 11.382C37.0565 12.474 37.2905 13.436 37.7585 14.268C38.2438 15.0827 38.9372 15.724 39.8385 16.192C40.7572 16.66 41.8925 16.894 43.2445 16.894ZM61.7004 19.208C60.7818 19.208 59.8804 19.1127 58.9964 18.922C58.1298 18.714 57.3324 18.4453 56.6044 18.116C55.8938 17.7867 55.3218 17.414 54.8884 16.998L56.0324 14.918C56.5004 15.334 57.0464 15.698 57.6704 16.01C58.3118 16.322 58.9878 16.5647 59.6984 16.738C60.4264 16.9113 61.1718 16.998 61.9344 16.998C62.9051 16.998 63.7631 16.8767 64.5084 16.634C65.2538 16.3913 65.8258 16.0447 66.2244 15.594C66.6404 15.126 66.8484 14.5627 66.8484 13.904C66.8484 13.3667 66.6751 12.9247 66.3284 12.578C65.9818 12.2313 65.5311 11.954 64.9764 11.746C64.4391 11.5207 63.8324 11.3213 63.1564 11.148C62.4978 10.9573 61.8304 10.7493 61.1544 10.524C60.4958 10.2813 59.8891 9.98667 59.3344 9.64C58.7971 9.29333 58.3551 8.85133 58.0084 8.314C57.6791 7.75933 57.5144 7.066 57.5144 6.234C57.5144 5.07267 57.8351 4.076 58.4764 3.244C59.1178 2.39467 60.0018 1.74467 61.1284 1.294C62.2724 0.825999 63.5898 0.592 65.0804 0.592C66.2071 0.592 67.2818 0.722 68.3044 0.982C69.3271 1.242 70.2024 1.62333 70.9304 2.126L69.8904 4.258C69.2144 3.77267 68.4518 3.40867 67.6024 3.166C66.7531 2.92333 65.8691 2.802 64.9504 2.802C63.9624 2.802 63.1044 2.932 62.3764 3.192C61.6484 3.452 61.0851 3.82467 60.6864 4.31C60.2878 4.778 60.0798 5.33267 60.0624 5.974C60.0624 6.52867 60.2271 6.97933 60.5564 7.326C60.8858 7.67267 61.3278 7.95867 61.8824 8.184C62.4371 8.40933 63.0438 8.626 63.7024 8.834C64.3784 9.02467 65.0458 9.23267 65.7044 9.458C66.3631 9.666 66.9698 9.94333 67.5244 10.29C68.0964 10.6193 68.5471 11.044 68.8764 11.564C69.2231 12.084 69.3964 12.7427 69.3964 13.54C69.3964 14.7013 69.0671 15.7153 68.4084 16.582C67.7671 17.4313 66.8658 18.0813 65.7044 18.532C64.5604 18.9827 63.2258 19.208 61.7004 19.208ZM76.22 19L77.624 11.98L77.936 13.696L72.684 0.799999H75.232L79.652 11.616L78.196 11.642L86.932 0.799999H89.688L79.314 13.722L80.224 11.98L78.82 19H76.22ZM93.9211 19.208C93.0025 19.208 92.1011 19.1127 91.2171 18.922C90.3505 18.714 89.5531 18.4453 88.8251 18.116C88.1145 17.7867 87.5425 17.414 87.1091 16.998L88.2531 14.918C88.7211 15.334 89.2671 15.698 89.8911 16.01C90.5325 16.322 91.2085 16.5647 91.9191 16.738C92.6471 16.9113 93.3925 16.998 94.1551 16.998C95.1258 16.998 95.9838 16.8767 96.7291 16.634C97.4745 16.3913 98.0465 16.0447 98.4451 15.594C98.8611 15.126 99.0691 14.5627 99.0691 13.904C99.0691 13.3667 98.8958 12.9247 98.5491 12.578C98.2025 12.2313 97.7518 11.954 97.1971 11.746C96.6598 11.5207 96.0531 11.3213 95.3771 11.148C94.7185 10.9573 94.0511 10.7493 93.3751 10.524C92.7165 10.2813 92.1098 9.98667 91.5551 9.64C91.0178 9.29333 90.5758 8.85133 90.2291 8.314C89.8998 7.75933 89.7351 7.066 89.7351 6.234C89.7351 5.07267 90.0558 4.076 90.6971 3.244C91.3385 2.39467 92.2225 1.74467 93.3491 1.294C94.4931 0.825999 95.8105 0.592 97.3011 0.592C98.4278 0.592 99.5025 0.722 100.525 0.982C101.548 1.242 102.423 1.62333 103.151 2.126L102.111 4.258C101.435 3.77267 100.672 3.40867 99.8231 3.166C98.9738 2.92333 98.0898 2.802 97.1711 2.802C96.1831 2.802 95.3251 2.932 94.5971 3.192C93.8691 3.452 93.3058 3.82467 92.9071 4.31C92.5085 4.778 92.3005 5.33267 92.2831 5.974C92.2831 6.52867 92.4478 6.97933 92.7771 7.326C93.1065 7.67267 93.5485 7.95867 94.1031 8.184C94.6578 8.40933 95.2645 8.626 95.9231 8.834C96.5991 9.02467 97.2665 9.23267 97.9251 9.458C98.5838 9.666 99.1905 9.94333 99.7451 10.29C100.317 10.6193 100.768 11.044 101.097 11.564C101.444 12.084 101.617 12.7427 101.617 13.54C101.617 14.7013 101.288 15.7153 100.629 16.582C99.9878 17.4313 99.0865 18.0813 97.9251 18.532C96.7811 18.9827 95.4465 19.208 93.9211 19.208Z" fill="#0E0E0E"/>
</svg>
