<svg width="292" height="292" viewBox="0 0 292 292" fill="none" xmlns="http://www.w3.org/2000/svg">
<g opacity="0.1">
<mask id="mask0_11_227" style="mask-type:alpha" maskUnits="userSpaceOnUse" x="0" y="0" width="292" height="292">
<rect width="292" height="292" fill="#D9D9D9"/>
</mask>
<g mask="url(#mask0_11_227)">
<path d="M69.35 219L97.3333 170.333C83.95 170.333 72.493 165.568 62.9625 156.038C53.4319 146.507 48.6667 135.05 48.6667 121.667C48.6667 108.283 53.4319 96.8264 62.9625 87.2958C72.493 77.7653 83.95 73 97.3333 73C110.717 73 122.174 77.7653 131.704 87.2958C141.235 96.8264 146 108.283 146 121.667C146 126.331 145.442 130.64 144.327 134.594C143.212 138.548 141.539 142.35 139.308 146L97.3333 219H69.35ZM178.85 219L206.833 170.333C193.45 170.333 181.993 165.568 172.462 156.038C162.932 146.507 158.167 135.05 158.167 121.667C158.167 108.283 162.932 96.8264 172.462 87.2958C181.993 77.7653 193.45 73 206.833 73C220.217 73 231.674 77.7653 241.204 87.2958C250.735 96.8264 255.5 108.283 255.5 121.667C255.5 126.331 254.942 130.64 253.827 134.594C252.712 138.548 251.039 142.35 248.808 146L206.833 219H178.85ZM97.3333 139.917C102.403 139.917 106.712 138.142 110.26 134.594C113.809 131.045 115.583 126.736 115.583 121.667C115.583 116.597 113.809 112.288 110.26 108.74C106.712 105.191 102.403 103.417 97.3333 103.417C92.2639 103.417 87.9548 105.191 84.4062 108.74C80.8576 112.288 79.0833 116.597 79.0833 121.667C79.0833 126.736 80.8576 131.045 84.4062 134.594C87.9548 138.142 92.2639 139.917 97.3333 139.917ZM206.833 139.917C211.903 139.917 216.212 138.142 219.76 134.594C223.309 131.045 225.083 126.736 225.083 121.667C225.083 116.597 223.309 112.288 219.76 108.74C216.212 105.191 211.903 103.417 206.833 103.417C201.764 103.417 197.455 105.191 193.906 108.74C190.358 112.288 188.583 116.597 188.583 121.667C188.583 126.736 190.358 131.045 193.906 134.594C197.455 138.142 201.764 139.917 206.833 139.917Z" fill="#0E0E0E"/>
</g>
</g>
</svg>
