<svg width="1290" height="50" viewBox="0 0 1290 50" fill="none" xmlns="http://www.w3.org/2000/svg">
<path fill-rule="evenodd" clip-rule="evenodd" d="M27.0944 16.6171C25.3897 15.4781 23.3856 14.8701 21.3354 14.8701V4.50425C25.4357 4.50425 29.444 5.72014 32.8533 7.99817C36.2627 10.2762 38.9198 13.5141 40.489 17.3022C42.0581 21.0904 42.4687 25.259 41.6688 29.2805C40.8688 33.302 38.8943 36.9961 35.9949 39.8955C33.0956 42.7949 29.4015 44.7694 25.38 45.5693C21.3584 46.3692 17.1899 45.9587 13.4017 44.3896C9.61349 42.8204 6.37565 40.1632 4.09762 36.7539C1.81959 33.3446 0.603699 29.3363 0.603699 25.236H10.9696C10.9696 27.2861 11.5775 29.2903 12.7165 30.9949C13.8555 32.6996 15.4745 34.0282 17.3686 34.8128C19.2627 35.5974 21.3469 35.8026 23.3577 35.4026C25.3685 35.0027 27.2154 34.0154 28.6652 32.5658C30.1149 31.116 31.1021 29.269 31.502 27.2582C31.9021 25.2475 31.6968 23.1632 30.9122 21.2692C30.1276 19.375 28.799 17.7561 27.0944 16.6171Z" fill="url(#paint0_radial_9_33)"/>
<path fill-rule="evenodd" clip-rule="evenodd" d="M10.9695 4.50425C10.9695 5.86552 10.7014 7.21345 10.1805 8.4711C9.65956 9.72874 8.89603 10.8715 7.93346 11.834C6.97091 12.7966 5.82819 13.5601 4.57054 14.0811C3.31289 14.602 1.96496 14.8701 0.603699 14.8701L0.603699 25.236C3.32622 25.236 6.02209 24.6997 8.53739 23.6579C11.0527 22.616 13.3381 21.0889 15.2632 19.1637C17.1883 17.2387 18.7154 14.9532 19.7573 12.4379C20.7992 9.92264 21.3354 7.22677 21.3354 4.50425L10.9695 4.50425Z" fill="url(#paint1_radial_9_33)"/>
<path d="M130.818 19.4855H125.789V35.4616H130.818V19.4855Z" fill="url(#paint2_radial_9_33)"/>
<path d="M126.349 16.4941C126.874 17.02 127.531 17.283 128.32 17.283C129.109 17.283 129.756 17.02 130.26 16.4941C130.765 15.9462 131.016 15.2887 131.016 14.5217C131.016 13.7328 130.765 13.0753 130.26 12.5493C129.756 12.0234 129.109 11.7604 128.32 11.7604C127.531 11.7604 126.874 12.0234 126.349 12.5493C125.844 13.0753 125.592 13.7328 125.592 14.5217C125.592 15.2887 125.844 15.9462 126.349 16.4941Z" fill="url(#paint3_radial_9_33)"/>
<path d="M53.6314 35.4617V12.2534H58.7924V30.9253H69.0817V35.4617H53.6314Z" fill="url(#paint4_radial_9_33)"/>
<path fill-rule="evenodd" clip-rule="evenodd" d="M78.3759 35.8233C76.7323 35.8233 75.2421 35.4617 73.9052 34.7385C72.5903 33.9934 71.5494 32.9853 70.7823 31.7142C70.0154 30.4431 69.6318 29.0186 69.6318 27.4407C69.6318 25.8628 70.0154 24.4494 70.7823 23.2002C71.5494 21.951 72.5903 20.9648 73.9052 20.2416C75.2202 19.4964 76.7104 19.1239 78.3759 19.1239C80.0415 19.1239 81.5317 19.4856 82.8466 20.2087C84.1615 20.9319 85.2026 21.9291 85.9695 23.2002C86.7366 24.4494 87.1202 25.8628 87.1202 27.4407C87.1202 29.0186 86.7366 30.4431 85.9695 31.7142C85.2026 32.9853 84.1615 33.9934 82.8466 34.7385C81.5317 35.4617 80.0415 35.8233 78.3759 35.8233ZM78.3759 31.254C79.0992 31.254 79.7347 31.1006 80.2826 30.7938C80.8305 30.4651 81.2469 30.0158 81.5317 29.446C81.8385 28.8543 81.992 28.1858 81.992 27.4407C81.992 26.6956 81.8385 26.0491 81.5317 25.5013C81.2249 24.9315 80.7976 24.4932 80.2497 24.1864C79.7237 23.8576 79.0992 23.6933 78.3759 23.6933C77.6747 23.6933 77.0501 23.8576 76.5022 24.1864C75.9544 24.4932 75.527 24.9315 75.2202 25.5013C74.9133 26.0711 74.76 26.7285 74.76 27.4736C74.76 28.1968 74.9133 28.8543 75.2202 29.446C75.527 30.0158 75.9544 30.4651 76.5022 30.7938C77.0501 31.1006 77.6747 31.254 78.3759 31.254Z" fill="url(#paint5_radial_9_33)"/>
<path fill-rule="evenodd" clip-rule="evenodd" d="M91.1034 41.7075C92.4402 42.3211 93.9852 42.6279 95.7385 42.6279C97.4478 42.6279 98.971 42.2882 100.308 41.6088C101.645 40.9295 102.696 39.9872 103.464 38.7819C104.231 37.5765 104.615 36.152 104.615 34.5083V19.4855H99.6832V20.5589C99.3164 20.2502 98.8999 19.991 98.4341 19.7813C97.5793 19.365 96.6041 19.1567 95.5084 19.1567C94.0401 19.1567 92.7361 19.5074 91.5965 20.2086C90.4568 20.888 89.5584 21.8304 88.9009 23.0357C88.2434 24.2192 87.9148 25.556 87.9148 27.0463C87.9148 28.5146 88.2434 29.8514 88.9009 31.0567C89.5584 32.262 90.4568 33.2154 91.5965 33.9166C92.7361 34.6179 94.0401 34.9686 95.5084 34.9686C96.5822 34.9686 97.5574 34.7604 98.4341 34.344C98.8586 34.1423 99.2422 33.9046 99.5846 33.6309V34.6399C99.5846 35.7575 99.223 36.6232 98.4998 37.2368C97.7985 37.8505 96.8233 38.1572 95.5741 38.1572C94.566 38.1572 93.7004 37.9819 92.9772 37.6312C92.2759 37.2807 91.6403 36.7656 91.0705 36.0862L87.9805 39.1763C88.7475 40.2721 89.7885 41.1158 91.1034 41.7075ZM98.2697 30.0376C97.7656 30.3445 97.163 30.4979 96.4616 30.4979C95.7604 30.4979 95.1467 30.3445 94.6208 30.0376C94.1167 29.7308 93.7223 29.3144 93.4374 28.7884C93.1524 28.2406 93.01 27.6598 93.01 27.0463C93.01 26.3888 93.1524 25.7971 93.4374 25.2711C93.7223 24.7451 94.1277 24.3287 94.6536 24.0219C95.1796 23.7151 95.7823 23.5617 96.4616 23.5617C97.163 23.5617 97.7656 23.7151 98.2697 24.0219C98.7956 24.3287 99.19 24.7451 99.4531 25.2711C99.738 25.7971 99.8804 26.3888 99.8804 27.0463C99.8804 27.7037 99.738 28.2953 99.4531 28.8213C99.19 29.3254 98.7956 29.7308 98.2697 30.0376Z" fill="url(#paint6_radial_9_33)"/>
<path fill-rule="evenodd" clip-rule="evenodd" d="M115.199 35.8233C113.555 35.8233 112.065 35.4617 110.728 34.7385C109.413 33.9934 108.372 32.9853 107.605 31.7142C106.838 30.4431 106.455 29.0186 106.455 27.4407C106.455 25.8628 106.838 24.4494 107.605 23.2002C108.372 21.951 109.413 20.9648 110.728 20.2416C112.043 19.4964 113.533 19.1239 115.199 19.1239C116.864 19.1239 118.355 19.4856 119.669 20.2087C120.984 20.9319 122.025 21.9291 122.792 23.2002C123.559 24.4494 123.943 25.8628 123.943 27.4407C123.943 29.0186 123.559 30.4431 122.792 31.7142C122.025 32.9853 120.984 33.9934 119.669 34.7385C118.355 35.4617 116.864 35.8233 115.199 35.8233ZM115.199 31.254C115.922 31.254 116.557 31.1006 117.105 30.7938C117.653 30.4651 118.069 30.0158 118.355 29.446C118.661 28.8543 118.815 28.1858 118.815 27.4407C118.815 26.6956 118.661 26.0491 118.355 25.5013C118.048 24.9315 117.621 24.4932 117.072 24.1864C116.547 23.8576 115.922 23.6933 115.199 23.6933C114.497 23.6933 113.872 23.8576 113.325 24.1864C112.777 24.4932 112.35 24.9315 112.043 25.5013C111.736 26.0711 111.583 26.7285 111.583 27.4736C111.583 28.1968 111.736 28.8543 112.043 29.446C112.35 30.0158 112.777 30.4651 113.325 30.7938C113.872 31.1006 114.497 31.254 115.199 31.254Z" fill="url(#paint7_radial_9_33)"/>
<path fill-rule="evenodd" clip-rule="evenodd" d="M142.907 35.7904C141.834 35.7904 140.847 35.5822 139.949 35.1658C139.476 34.9467 139.049 34.6851 138.667 34.3809V42.2006H133.703V19.4855H138.733V20.5881C139.098 20.2897 139.503 20.0317 139.949 19.8142C140.847 19.3758 141.834 19.1567 142.907 19.1567C144.419 19.1567 145.757 19.5184 146.918 20.2416C148.101 20.9647 149.022 21.9509 149.679 23.2001C150.359 24.4493 150.698 25.8738 150.698 27.4735C150.698 29.0734 150.359 30.4979 149.679 31.7471C149.022 32.9963 148.101 33.9824 146.918 34.7056C145.757 35.4288 144.419 35.7904 142.907 35.7904ZM141.988 31.254C142.71 31.254 143.335 31.0896 143.861 30.7609C144.409 30.4322 144.836 29.9828 145.143 29.4131C145.45 28.8433 145.603 28.1968 145.603 27.4735C145.603 26.7284 145.45 26.071 145.143 25.5012C144.836 24.9314 144.409 24.4931 143.861 24.1863C143.335 23.8575 142.722 23.6932 142.02 23.6932C141.319 23.6932 140.694 23.8575 140.147 24.1863C139.62 24.4931 139.204 24.9314 138.898 25.5012C138.591 26.071 138.437 26.7284 138.437 27.4735C138.437 28.1968 138.579 28.8433 138.864 29.4131C139.171 29.9828 139.598 30.4322 140.147 30.7609C140.694 31.0896 141.308 31.254 141.988 31.254Z" fill="url(#paint8_radial_9_33)"/>
<path d="M155.621 35.4946C156.541 35.7357 157.472 35.8561 158.414 35.8561C160.409 35.8561 161.987 35.396 163.149 34.4755C164.331 33.5551 164.923 32.3169 164.923 30.7609C164.923 29.7528 164.738 28.9419 164.364 28.3283C163.992 27.6928 163.51 27.1887 162.918 26.8162C162.327 26.4436 161.701 26.1477 161.044 25.9285C160.387 25.7094 159.762 25.5231 159.171 25.3697C158.579 25.2163 158.097 25.041 157.724 24.8437C157.352 24.6465 157.165 24.3835 157.165 24.0548C157.165 23.748 157.308 23.5178 157.592 23.3644C157.878 23.1891 158.305 23.1016 158.875 23.1016C159.467 23.1016 160.069 23.222 160.683 23.4631C161.318 23.7041 161.888 24.1206 162.392 24.7123L165.252 21.8195C164.529 20.899 163.587 20.2087 162.425 19.7485C161.286 19.2664 160.037 19.0253 158.678 19.0253C157.385 19.0253 156.256 19.2444 155.292 19.6827C154.327 20.1211 153.582 20.7237 153.056 21.4907C152.531 22.2358 152.268 23.1234 152.268 24.1535C152.268 25.1177 152.454 25.9176 152.826 26.5532C153.198 27.1667 153.681 27.649 154.272 27.9995C154.864 28.3502 155.489 28.6242 156.146 28.8213C156.804 29.0186 157.429 29.2049 158.021 29.3803C158.611 29.5337 159.094 29.7199 159.467 29.9391C159.862 30.1363 160.058 30.4322 160.058 30.8266C160.058 31.1334 159.894 31.3744 159.565 31.5498C159.258 31.7251 158.809 31.8128 158.218 31.8128C157.362 31.8128 156.574 31.6594 155.851 31.3526C155.127 31.0239 154.502 30.5746 153.977 30.0048L151.117 32.8976C151.665 33.4893 152.322 34.0154 153.09 34.4755C153.878 34.9138 154.722 35.2534 155.621 35.4946Z" fill="url(#paint9_radial_9_33)"/>
<path d="M174.095 35.8232C172.627 35.8232 171.323 35.5274 170.184 34.9357C169.065 34.322 168.189 33.4892 167.554 32.4373C166.918 31.3635 166.6 30.1363 166.6 28.7555V19.4855H171.63V28.6898C171.63 29.2377 171.717 29.7089 171.893 30.1033C172.09 30.4978 172.375 30.8047 172.747 31.0238C173.121 31.2429 173.569 31.3525 174.095 31.3525C174.84 31.3525 175.432 31.1224 175.871 30.6621C176.309 30.18 176.528 29.5226 176.528 28.6898V19.4855H181.557V28.7227C181.557 30.1253 181.24 31.3635 180.604 32.4373C179.968 33.4892 179.092 34.322 177.974 34.9357C176.856 35.5274 175.564 35.8232 174.095 35.8232Z" fill="url(#paint10_radial_9_33)"/>
<path d="M189.087 19.4855H184.058V35.4617H189.087V26.1258C189.087 25.5779 189.197 25.1177 189.416 24.7451C189.657 24.3726 189.975 24.0876 190.369 23.8905C190.764 23.6712 191.213 23.5617 191.717 23.5617C192.44 23.5617 193.043 23.7918 193.525 24.252C194.03 24.6903 194.281 25.315 194.281 26.1258V35.4617H199.311V26.1258C199.311 25.5779 199.421 25.1177 199.64 24.7451C199.881 24.3726 200.198 24.0876 200.593 23.8905C200.987 23.6712 201.437 23.5617 201.941 23.5617C202.664 23.5617 203.267 23.7918 203.749 24.252C204.252 24.6903 204.504 25.315 204.504 26.1258V35.4617H209.535V25.5669C209.535 24.2302 209.25 23.0905 208.68 22.1482C208.131 21.1838 207.376 20.4497 206.412 19.9458C205.469 19.4197 204.384 19.1567 203.157 19.1567C201.908 19.1567 200.779 19.4307 199.771 19.9786C199.116 20.3276 198.544 20.7781 198.054 21.33C197.596 20.7527 197.041 20.2804 196.385 19.9128C195.509 19.4088 194.512 19.1567 193.394 19.1567C192.21 19.1567 191.148 19.4088 190.206 19.9128C189.795 20.1225 189.423 20.3737 189.087 20.6663V19.4855Z" fill="url(#paint11_radial_9_33)"/>
<path d="M409.638 38.0736C401.984 38.0736 396.143 32.1091 396.143 24.8316C396.143 17.6041 402.035 11.6408 409.638 11.6408C417.343 11.6408 423.183 17.6552 423.183 24.8316C423.183 32.1091 417.292 38.0723 409.638 38.0723V38.0736ZM409.638 31.3503C413.315 31.3503 416.033 28.4198 416.033 24.8828C416.033 21.3445 413.315 18.4128 409.638 18.4128C405.962 18.4128 403.293 21.3445 403.293 24.8815C403.293 28.4198 405.962 31.3503 409.638 31.3503ZM379.28 49.5957C373.44 49.5957 368.958 47.0185 366.692 42.3682L372.634 39.1344C373.742 41.3073 375.806 43.0259 379.18 43.0259C383.41 43.0259 386.279 40.0443 386.279 35.1419V34.6863C384.92 36.4049 382.504 37.7191 378.978 37.7191C371.978 37.7191 366.39 32.2613 366.39 24.8316C366.39 17.6041 372.231 11.6919 379.885 11.6919C387.689 11.6919 393.431 17.3008 393.431 24.8316V34.9397C393.431 43.8346 387.387 49.5957 379.28 49.5957ZM379.784 30.9471C383.359 30.9471 386.18 28.2675 386.18 24.6806C386.18 21.0912 383.359 18.464 379.784 18.464C376.259 18.464 373.44 21.0924 373.44 24.6806C373.44 28.2688 376.259 30.9471 379.784 30.9471ZM351.361 38.0736C343.707 38.0736 337.866 32.1091 337.866 24.8316C337.866 17.6041 343.757 11.6408 351.361 11.6408C359.065 11.6408 364.907 17.6552 364.907 24.8316C364.907 32.1091 359.015 38.0723 351.361 38.0723V38.0736ZM351.361 31.3503C355.037 31.3503 357.757 28.4198 357.757 24.8828C357.757 21.3445 355.037 18.4128 351.361 18.4128C347.684 18.4128 345.017 21.3445 345.017 24.8815C345.017 28.4198 347.685 31.3503 351.361 31.3503ZM327 0.876203H334.15V37.4158H327V0.876203ZM426.512 8.79313C426.512 9.6007 426.193 10.3752 425.624 10.9462C425.055 11.5173 424.283 11.8381 423.478 11.8381C422.674 11.8381 421.902 11.5173 421.333 10.9462C420.764 10.3752 420.444 9.6007 420.444 8.79313C420.444 7.98555 420.764 7.21105 421.333 6.64001C421.902 6.06896 422.674 5.74816 423.478 5.74816C424.283 5.74816 425.055 6.06896 425.624 6.64001C426.193 7.21105 426.512 7.98555 426.512 8.79313Z" fill="url(#paint12_radial_9_33)"/>
<path fill-rule="evenodd" clip-rule="evenodd" d="M556.77 32.2848C555.599 32.2848 554.475 31.8206 553.647 30.9944C552.818 30.1682 552.353 29.0477 552.353 27.8793V7.61403H543.518V27.8793C543.518 35.1783 549.452 41.0957 556.77 41.0957H566.488V32.2848H556.77ZM583.274 16.425C582.23 16.425 581.196 16.6301 580.231 17.0286C579.266 17.4271 578.39 18.0113 577.651 18.7476C576.913 19.484 576.328 20.3582 575.928 21.3203C575.528 22.2823 575.323 23.3135 575.323 24.3549C575.323 25.3963 575.528 26.4274 575.928 27.3895C576.328 28.3516 576.913 29.2258 577.651 29.9622C578.39 30.6985 579.266 31.2826 580.231 31.6811C581.196 32.0797 582.23 32.2848 583.274 32.2848C585.383 32.2848 587.405 31.4493 588.896 29.9622C590.387 28.475 591.225 26.458 591.225 24.3549C591.225 22.2518 590.387 20.2348 588.896 18.7476C587.405 17.2605 585.383 16.425 583.274 16.425ZM566.488 24.3549C566.488 15.1095 574.004 7.61403 583.274 7.61403C592.544 7.61403 600.059 15.1095 600.059 24.3549C600.059 33.6002 592.544 41.0957 583.274 41.0957C574.004 41.0957 566.488 33.6002 566.488 24.3549ZM678.687 16.425C676.578 16.425 674.556 17.2605 673.064 18.7476C671.573 20.2348 670.736 22.2518 670.736 24.3549C670.736 26.458 671.573 28.475 673.064 29.9622C674.556 31.4493 676.578 32.2848 678.687 32.2848C680.795 32.2848 682.818 31.4493 684.309 29.9622C685.8 28.475 686.638 26.458 686.638 24.3549C686.638 22.2518 685.8 20.2348 684.309 18.7476C682.818 17.2605 680.795 16.425 678.687 16.425ZM661.901 24.3549C661.901 15.1095 669.417 7.61403 678.687 7.61403C687.957 7.61403 695.472 15.1095 695.472 24.3549C695.472 33.6002 687.957 41.0957 678.687 41.0957C669.417 41.0957 661.901 33.6002 661.901 24.3549ZM618.612 7.61403C609.342 7.61403 601.826 15.1095 601.826 24.3549C601.826 33.6002 609.342 41.0957 618.612 41.0957H643.349C645.088 41.0957 646.766 40.8314 648.344 40.3415L653.067 42.8579L658.162 33.3386C659.457 30.9153 660.134 28.2117 660.134 25.466V24.3549C660.134 15.1095 652.619 7.61403 643.349 7.61403H618.612ZM651.3 24.3549C651.3 22.2518 650.462 20.2348 648.971 18.7476C647.48 17.2605 645.457 16.425 643.349 16.425H618.612C617.568 16.425 616.534 16.6301 615.569 17.0286C614.604 17.4271 613.728 18.0113 612.99 18.7476C612.251 19.484 611.666 20.3582 611.266 21.3203C610.866 22.2823 610.661 23.3135 610.661 24.3549C610.661 25.3963 610.866 26.4274 611.266 27.3895C611.666 28.3516 612.251 29.2258 612.99 29.9622C613.728 30.6985 614.604 31.2826 615.569 31.6811C616.534 32.0797 617.568 32.2848 618.612 32.2848H643.349C645.447 32.2848 647.46 31.4578 648.949 29.984C650.438 28.5102 651.283 26.509 651.3 24.4166V24.3549Z" fill="url(#paint13_radial_9_33)"/>
<path d="M699.006 9.81671C699.006 10.4009 698.773 10.9612 698.359 11.3743C697.945 11.7874 697.383 12.0195 696.798 12.0195C696.212 12.0195 695.65 11.7874 695.236 11.3743C694.822 10.9612 694.589 10.4009 694.589 9.81671C694.589 9.23251 694.822 8.67223 695.236 8.25914C695.65 7.84604 696.212 7.61397 696.798 7.61397C697.383 7.61397 697.945 7.84604 698.359 8.25914C698.773 8.67223 699.006 9.23251 699.006 9.81671Z" fill="url(#paint14_radial_9_33)"/>
<path fill-rule="evenodd" clip-rule="evenodd" d="M824.858 9.81669V42.8579H816.012V9.81669H824.858Z" fill="url(#paint15_radial_9_33)"/>
<path fill-rule="evenodd" clip-rule="evenodd" d="M829.28 9.81669H848.077C854.184 9.81669 859.134 14.7477 859.134 20.8304C859.134 26.9132 854.184 31.8441 848.077 31.8441H838.126V42.8579H829.28V9.81669ZM838.126 23.0332H848.077C849.299 23.0332 850.289 22.0469 850.289 20.8304C850.289 19.6139 849.299 18.6277 848.077 18.6277H838.126V23.0332Z" fill="url(#paint16_radial_9_33)"/>
<path fill-rule="evenodd" clip-rule="evenodd" d="M892.305 9.81669V26.888C892.305 30.8417 895.522 34.0469 899.492 34.0469C903.461 34.0469 906.679 30.8417 906.679 26.888V9.81669H915.525V26.888C915.525 35.7079 908.346 42.8579 899.492 42.8579C890.637 42.8579 883.459 35.7079 883.459 26.888V9.81669H892.305Z" fill="url(#paint17_radial_9_33)"/>
<path fill-rule="evenodd" clip-rule="evenodd" d="M862.451 25.2359C862.451 16.7201 869.382 9.81669 877.931 9.81669H880.142V18.6277H877.931C874.267 18.6277 871.297 21.5863 871.297 25.2359V26.3373C871.297 35.4613 863.871 42.8579 854.711 42.8579H853.606V34.0469H854.711C858.986 34.0469 862.451 30.5952 862.451 26.3373V25.2359Z" fill="url(#paint18_radial_9_33)"/>
<path d="M965.28 10.9181C965.28 12.7429 963.796 14.2222 961.963 14.2222C960.131 14.2222 958.646 12.7429 958.646 10.9181C958.646 9.09326 960.131 7.61395 961.963 7.61395C963.796 7.61395 965.28 9.09326 965.28 10.9181Z" fill="url(#paint19_radial_9_33)"/>
<path d="M925.022 42.8579L929.243 25.2519L932.381 35.8438C934.252 42.1611 943.236 42.1611 945.107 35.8438L948.244 25.2519L952.466 42.8579H961.559L954.923 15.1734C953.344 8.58976 944.031 8.346 942.107 14.838L938.744 26.1904L935.381 14.838C933.458 8.34604 924.143 8.58972 922.565 15.1734L915.928 42.8579H925.022Z" fill="url(#paint20_radial_9_33)"/>
<path d="M1145.53 34.5505H1160.11V30.1603H1150.71V13.6237H1145.53V34.5505Z" fill="url(#paint21_radial_9_33)"/>
<path d="M1168.74 31.6236C1166.66 31.6236 1165.58 29.809 1165.58 27.087C1165.58 24.3651 1166.66 22.5212 1168.74 22.5212C1170.82 22.5212 1171.93 24.3651 1171.93 27.087C1171.93 29.809 1170.82 31.6236 1168.74 31.6236ZM1168.77 35.0187C1173.6 35.0187 1176.76 31.5944 1176.76 27.087C1176.76 22.5797 1173.6 19.1553 1168.77 19.1553C1163.97 19.1553 1160.75 22.5797 1160.75 27.087C1160.75 31.5944 1163.97 35.0187 1168.77 35.0187Z" fill="url(#paint22_radial_9_33)"/>
<path d="M1185.12 39.731C1187.34 39.731 1189.31 39.2335 1190.62 38.0627C1191.82 36.9798 1192.61 35.3408 1192.61 33.0871V19.5652H1188.05V21.1749H1187.99C1187.11 19.9164 1185.76 19.1261 1183.77 19.1261C1180.06 19.1261 1177.48 22.2286 1177.48 26.6188C1177.48 31.214 1180.61 33.731 1183.98 33.731C1185.79 33.731 1186.93 32.9993 1187.81 32.0042H1187.93V33.4969C1187.93 35.3115 1187.08 36.3652 1185.06 36.3652C1183.48 36.3652 1182.69 35.692 1182.43 34.9018H1177.8C1178.27 38.0335 1180.99 39.731 1185.12 39.731ZM1185.09 30.1896C1183.31 30.1896 1182.13 28.7261 1182.13 26.4725C1182.13 24.1896 1183.31 22.7261 1185.09 22.7261C1187.08 22.7261 1188.13 24.4237 1188.13 26.4432C1188.13 28.5505 1187.17 30.1896 1185.09 30.1896Z" fill="url(#paint23_radial_9_33)"/>
<path d="M1202 31.6236C1199.92 31.6236 1198.84 29.809 1198.84 27.087C1198.84 24.3651 1199.92 22.5212 1202 22.5212C1204.08 22.5212 1205.19 24.3651 1205.19 27.087C1205.19 29.809 1204.08 31.6236 1202 31.6236ZM1202.03 35.0187C1206.86 35.0187 1210.02 31.5944 1210.02 27.087C1210.02 22.5797 1206.86 19.1553 1202.03 19.1553C1197.23 19.1553 1194.01 22.5797 1194.01 27.087C1194.01 31.5944 1197.23 35.0187 1202.03 35.0187Z" fill="url(#paint24_radial_9_33)"/>
<path d="M1211.41 34.5505H1216.18V19.5652H1211.41V34.5505ZM1211.41 17.4871H1216.18V13.6237H1211.41V17.4871Z" fill="url(#paint25_radial_9_33)"/>
<path d="M1218.25 39.4969H1223.03V32.9993H1223.08C1224.02 34.2579 1225.4 35.0188 1227.33 35.0188C1231.25 35.0188 1233.85 31.9164 1233.85 27.0579C1233.85 22.5505 1231.43 19.1261 1227.45 19.1261C1225.4 19.1261 1223.93 20.0335 1222.91 21.3798H1222.82V19.5652H1218.25V39.4969ZM1226.1 31.331C1224.05 31.331 1222.88 29.6627 1222.88 27.2335C1222.88 24.8042 1223.93 22.9603 1226.01 22.9603C1228.06 22.9603 1229.03 24.6579 1229.03 27.2335C1229.03 29.7798 1227.91 31.331 1226.1 31.331Z" fill="url(#paint26_radial_9_33)"/>
<path d="M1241.62 35.0188C1245.54 35.0188 1248.44 33.3213 1248.44 30.0432C1248.44 26.2091 1245.34 25.5359 1242.7 25.0969C1240.8 24.7457 1239.1 24.5993 1239.1 23.5457C1239.1 22.6091 1240.01 22.17 1241.18 22.17C1242.5 22.17 1243.41 22.5798 1243.58 23.9261H1247.97C1247.74 20.97 1245.46 19.1261 1241.21 19.1261C1237.67 19.1261 1234.74 20.7652 1234.74 23.9261C1234.74 27.4383 1237.52 28.1408 1240.13 28.5798C1242.12 28.931 1243.93 29.0774 1243.93 30.4237C1243.93 31.3896 1243.03 31.9164 1241.59 31.9164C1240.01 31.9164 1239.02 31.1847 1238.84 29.692H1234.33C1234.48 32.9993 1237.23 35.0188 1241.62 35.0188Z" fill="url(#paint27_radial_9_33)"/>
<path d="M1254.92 34.9897C1257 34.9897 1258.32 34.1702 1259.4 32.7067H1259.49V34.5507H1264.05V19.5653H1259.28V27.936C1259.28 29.7214 1258.29 30.9507 1256.65 30.9507C1255.13 30.9507 1254.4 30.0433 1254.4 28.4043V19.5653H1249.65V29.3994C1249.65 32.736 1251.47 34.9897 1254.92 34.9897Z" fill="url(#paint28_radial_9_33)"/>
<path d="M1266.13 34.5505H1270.9V26.1505C1270.9 24.3652 1271.78 23.1066 1273.27 23.1066C1274.7 23.1066 1275.38 24.0432 1275.38 25.653V34.5505H1280.15V26.1505C1280.15 24.3652 1281 23.1066 1282.52 23.1066C1283.95 23.1066 1284.63 24.0432 1284.63 25.653V34.5505H1289.4V24.8042C1289.4 21.4383 1287.7 19.1261 1284.3 19.1261C1282.37 19.1261 1280.76 19.9457 1279.59 21.7603H1279.53C1278.77 20.1505 1277.28 19.1261 1275.32 19.1261C1273.15 19.1261 1271.72 20.1505 1270.78 21.7018H1270.69V19.5652H1266.13V34.5505Z" fill="url(#paint29_radial_9_33)"/>
<path fill-rule="evenodd" clip-rule="evenodd" d="M1107.51 49.1847C1120.98 49.1847 1131.9 38.2648 1131.9 24.7945C1131.9 11.3241 1120.98 0.404236 1107.51 0.404236C1094.04 0.404236 1083.12 11.3241 1083.12 24.7945C1083.12 38.2648 1094.04 49.1847 1107.51 49.1847ZM1115.12 11.7662C1115.49 10.4506 1114.21 9.67269 1113.05 10.5034L1096.77 22.0988C1095.51 22.9997 1095.71 24.7945 1097.07 24.7945H1101.36V24.7613H1109.71L1102.9 27.1629L1099.9 37.8227C1099.53 39.1384 1100.81 39.9163 1101.97 39.0856L1118.25 27.4902C1119.52 26.5893 1119.32 24.7945 1117.95 24.7945H1111.45L1115.12 11.7662Z" fill="url(#paint30_radial_9_33)"/>
<defs>
<radialGradient id="paint0_radial_9_33" cx="0" cy="0" r="1" gradientUnits="userSpaceOnUse" gradientTransform="translate(645 25) scale(644.396 644.396)">
<stop stop-color="#0E0E0E" stop-opacity="0.8"/>
<stop offset="1" stop-color="#0E0E0E" stop-opacity="0.2"/>
</radialGradient>
<radialGradient id="paint1_radial_9_33" cx="0" cy="0" r="1" gradientUnits="userSpaceOnUse" gradientTransform="translate(645 25) scale(644.396 644.396)">
<stop stop-color="#0E0E0E" stop-opacity="0.8"/>
<stop offset="1" stop-color="#0E0E0E" stop-opacity="0.2"/>
</radialGradient>
<radialGradient id="paint2_radial_9_33" cx="0" cy="0" r="1" gradientUnits="userSpaceOnUse" gradientTransform="translate(645 25) scale(644.396 644.396)">
<stop stop-color="#0E0E0E" stop-opacity="0.8"/>
<stop offset="1" stop-color="#0E0E0E" stop-opacity="0.2"/>
</radialGradient>
<radialGradient id="paint3_radial_9_33" cx="0" cy="0" r="1" gradientUnits="userSpaceOnUse" gradientTransform="translate(645 25) scale(644.396 644.396)">
<stop stop-color="#0E0E0E" stop-opacity="0.8"/>
<stop offset="1" stop-color="#0E0E0E" stop-opacity="0.2"/>
</radialGradient>
<radialGradient id="paint4_radial_9_33" cx="0" cy="0" r="1" gradientUnits="userSpaceOnUse" gradientTransform="translate(645 25) scale(644.396 644.396)">
<stop stop-color="#0E0E0E" stop-opacity="0.8"/>
<stop offset="1" stop-color="#0E0E0E" stop-opacity="0.2"/>
</radialGradient>
<radialGradient id="paint5_radial_9_33" cx="0" cy="0" r="1" gradientUnits="userSpaceOnUse" gradientTransform="translate(645 25) scale(644.396 644.396)">
<stop stop-color="#0E0E0E" stop-opacity="0.8"/>
<stop offset="1" stop-color="#0E0E0E" stop-opacity="0.2"/>
</radialGradient>
<radialGradient id="paint6_radial_9_33" cx="0" cy="0" r="1" gradientUnits="userSpaceOnUse" gradientTransform="translate(645 25) scale(644.396 644.396)">
<stop stop-color="#0E0E0E" stop-opacity="0.8"/>
<stop offset="1" stop-color="#0E0E0E" stop-opacity="0.2"/>
</radialGradient>
<radialGradient id="paint7_radial_9_33" cx="0" cy="0" r="1" gradientUnits="userSpaceOnUse" gradientTransform="translate(645 25) scale(644.396 644.396)">
<stop stop-color="#0E0E0E" stop-opacity="0.8"/>
<stop offset="1" stop-color="#0E0E0E" stop-opacity="0.2"/>
</radialGradient>
<radialGradient id="paint8_radial_9_33" cx="0" cy="0" r="1" gradientUnits="userSpaceOnUse" gradientTransform="translate(645 25) scale(644.396 644.396)">
<stop stop-color="#0E0E0E" stop-opacity="0.8"/>
<stop offset="1" stop-color="#0E0E0E" stop-opacity="0.2"/>
</radialGradient>
<radialGradient id="paint9_radial_9_33" cx="0" cy="0" r="1" gradientUnits="userSpaceOnUse" gradientTransform="translate(645 25) scale(644.396 644.396)">
<stop stop-color="#0E0E0E" stop-opacity="0.8"/>
<stop offset="1" stop-color="#0E0E0E" stop-opacity="0.2"/>
</radialGradient>
<radialGradient id="paint10_radial_9_33" cx="0" cy="0" r="1" gradientUnits="userSpaceOnUse" gradientTransform="translate(645 25) scale(644.396 644.396)">
<stop stop-color="#0E0E0E" stop-opacity="0.8"/>
<stop offset="1" stop-color="#0E0E0E" stop-opacity="0.2"/>
</radialGradient>
<radialGradient id="paint11_radial_9_33" cx="0" cy="0" r="1" gradientUnits="userSpaceOnUse" gradientTransform="translate(645 25) scale(644.396 644.396)">
<stop stop-color="#0E0E0E" stop-opacity="0.8"/>
<stop offset="1" stop-color="#0E0E0E" stop-opacity="0.2"/>
</radialGradient>
<radialGradient id="paint12_radial_9_33" cx="0" cy="0" r="1" gradientUnits="userSpaceOnUse" gradientTransform="translate(645 25) scale(644.396 644.396)">
<stop stop-color="#0E0E0E" stop-opacity="0.8"/>
<stop offset="1" stop-color="#0E0E0E" stop-opacity="0.2"/>
</radialGradient>
<radialGradient id="paint13_radial_9_33" cx="0" cy="0" r="1" gradientUnits="userSpaceOnUse" gradientTransform="translate(645 25) scale(644.396 644.396)">
<stop stop-color="#0E0E0E" stop-opacity="0.8"/>
<stop offset="1" stop-color="#0E0E0E" stop-opacity="0.2"/>
</radialGradient>
<radialGradient id="paint14_radial_9_33" cx="0" cy="0" r="1" gradientUnits="userSpaceOnUse" gradientTransform="translate(645 25) scale(644.396 644.396)">
<stop stop-color="#0E0E0E" stop-opacity="0.8"/>
<stop offset="1" stop-color="#0E0E0E" stop-opacity="0.2"/>
</radialGradient>
<radialGradient id="paint15_radial_9_33" cx="0" cy="0" r="1" gradientUnits="userSpaceOnUse" gradientTransform="translate(645 25) scale(644.396 644.396)">
<stop stop-color="#0E0E0E" stop-opacity="0.8"/>
<stop offset="1" stop-color="#0E0E0E" stop-opacity="0.2"/>
</radialGradient>
<radialGradient id="paint16_radial_9_33" cx="0" cy="0" r="1" gradientUnits="userSpaceOnUse" gradientTransform="translate(645 25) scale(644.396 644.396)">
<stop stop-color="#0E0E0E" stop-opacity="0.8"/>
<stop offset="1" stop-color="#0E0E0E" stop-opacity="0.2"/>
</radialGradient>
<radialGradient id="paint17_radial_9_33" cx="0" cy="0" r="1" gradientUnits="userSpaceOnUse" gradientTransform="translate(645 25) scale(644.396 644.396)">
<stop stop-color="#0E0E0E" stop-opacity="0.8"/>
<stop offset="1" stop-color="#0E0E0E" stop-opacity="0.2"/>
</radialGradient>
<radialGradient id="paint18_radial_9_33" cx="0" cy="0" r="1" gradientUnits="userSpaceOnUse" gradientTransform="translate(645 25) scale(644.396 644.396)">
<stop stop-color="#0E0E0E" stop-opacity="0.8"/>
<stop offset="1" stop-color="#0E0E0E" stop-opacity="0.2"/>
</radialGradient>
<radialGradient id="paint19_radial_9_33" cx="0" cy="0" r="1" gradientUnits="userSpaceOnUse" gradientTransform="translate(645 25) scale(644.396 644.396)">
<stop stop-color="#0E0E0E" stop-opacity="0.8"/>
<stop offset="1" stop-color="#0E0E0E" stop-opacity="0.2"/>
</radialGradient>
<radialGradient id="paint20_radial_9_33" cx="0" cy="0" r="1" gradientUnits="userSpaceOnUse" gradientTransform="translate(645 25) scale(644.396 644.396)">
<stop stop-color="#0E0E0E" stop-opacity="0.8"/>
<stop offset="1" stop-color="#0E0E0E" stop-opacity="0.2"/>
</radialGradient>
<radialGradient id="paint21_radial_9_33" cx="0" cy="0" r="1" gradientUnits="userSpaceOnUse" gradientTransform="translate(645 25) scale(644.396 644.396)">
<stop stop-color="#0E0E0E" stop-opacity="0.8"/>
<stop offset="1" stop-color="#0E0E0E" stop-opacity="0.2"/>
</radialGradient>
<radialGradient id="paint22_radial_9_33" cx="0" cy="0" r="1" gradientUnits="userSpaceOnUse" gradientTransform="translate(645 25) scale(644.396 644.396)">
<stop stop-color="#0E0E0E" stop-opacity="0.8"/>
<stop offset="1" stop-color="#0E0E0E" stop-opacity="0.2"/>
</radialGradient>
<radialGradient id="paint23_radial_9_33" cx="0" cy="0" r="1" gradientUnits="userSpaceOnUse" gradientTransform="translate(645 25) scale(644.396 644.396)">
<stop stop-color="#0E0E0E" stop-opacity="0.8"/>
<stop offset="1" stop-color="#0E0E0E" stop-opacity="0.2"/>
</radialGradient>
<radialGradient id="paint24_radial_9_33" cx="0" cy="0" r="1" gradientUnits="userSpaceOnUse" gradientTransform="translate(645 25) scale(644.396 644.396)">
<stop stop-color="#0E0E0E" stop-opacity="0.8"/>
<stop offset="1" stop-color="#0E0E0E" stop-opacity="0.2"/>
</radialGradient>
<radialGradient id="paint25_radial_9_33" cx="0" cy="0" r="1" gradientUnits="userSpaceOnUse" gradientTransform="translate(645 25) scale(644.396 644.396)">
<stop stop-color="#0E0E0E" stop-opacity="0.8"/>
<stop offset="1" stop-color="#0E0E0E" stop-opacity="0.2"/>
</radialGradient>
<radialGradient id="paint26_radial_9_33" cx="0" cy="0" r="1" gradientUnits="userSpaceOnUse" gradientTransform="translate(645 25) scale(644.396 644.396)">
<stop stop-color="#0E0E0E" stop-opacity="0.8"/>
<stop offset="1" stop-color="#0E0E0E" stop-opacity="0.2"/>
</radialGradient>
<radialGradient id="paint27_radial_9_33" cx="0" cy="0" r="1" gradientUnits="userSpaceOnUse" gradientTransform="translate(645 25) scale(644.396 644.396)">
<stop stop-color="#0E0E0E" stop-opacity="0.8"/>
<stop offset="1" stop-color="#0E0E0E" stop-opacity="0.2"/>
</radialGradient>
<radialGradient id="paint28_radial_9_33" cx="0" cy="0" r="1" gradientUnits="userSpaceOnUse" gradientTransform="translate(645 25) scale(644.396 644.396)">
<stop stop-color="#0E0E0E" stop-opacity="0.8"/>
<stop offset="1" stop-color="#0E0E0E" stop-opacity="0.2"/>
</radialGradient>
<radialGradient id="paint29_radial_9_33" cx="0" cy="0" r="1" gradientUnits="userSpaceOnUse" gradientTransform="translate(645 25) scale(644.396 644.396)">
<stop stop-color="#0E0E0E" stop-opacity="0.8"/>
<stop offset="1" stop-color="#0E0E0E" stop-opacity="0.2"/>
</radialGradient>
<radialGradient id="paint30_radial_9_33" cx="0" cy="0" r="1" gradientUnits="userSpaceOnUse" gradientTransform="translate(645 25) scale(644.396 644.396)">
<stop stop-color="#0E0E0E" stop-opacity="0.8"/>
<stop offset="1" stop-color="#0E0E0E" stop-opacity="0.2"/>
</radialGradient>
</defs>
</svg>
